<?xml version="1.0" encoding="UTF-8"?><svg id="Calque_1" xmlns="http://www.w3.org/2000/svg" viewBox="0 0 492.38 158.89"><defs><style>.cls-1{fill:#ff6400;}</style></defs><g><path d="m201.38,140.07c-.21.02-.4-.05-.57-.2s-.25-.34-.25-.57c0-.25.08-.45.24-.6.16-.15.35-.21.58-.17l1.25.08h.05c.12,0,.19-.07.19-.21v-16.36c0-.18-.08-.25-.24-.21l-1.22.08c-.23.02-.43-.04-.6-.19-.17-.14-.25-.33-.25-.56,0-.25.08-.45.24-.6.16-.15.35-.21.58-.17.27.02.55.04.86.07s.61.05.89.07c.41.02.75.16,1.02.44.27.27.41.61.41.99v16.43c0,.18.09.25.27.21l1.22-.08c.23-.04.42.02.58.17.16.15.24.35.24.6,0,.23-.08.42-.25.57s-.36.22-.57.2c-.55-.05-.99-.09-1.34-.12-.34-.03-.68-.04-.99-.04-.37,0-.72.01-1.06.04-.34.04-.77.08-1.28.13Z"/><path d="m209.6,124.06c-.07.04-.12.05-.16.05-.09,0-.17-.04-.25-.12s-.12-.16-.12-.25.04-.17.13-.24c.64-.44,1.13-.92,1.47-1.43s.52-.96.52-1.35c0-.53-.29-.83-.87-.9-.44-.07-.77-.26-.99-.56s-.33-.63-.33-.98c0-.39.13-.74.4-1.06s.64-.48,1.14-.48c.57,0,1.02.26,1.35.78.34.52.5,1.15.5,1.9s-.22,1.57-.65,2.44c-.44.87-1.15,1.6-2.14,2.2Z"/><path d="m222.13,140.07c-1.29,0-2.47-.31-3.53-.93s-1.9-1.45-2.53-2.49-.94-2.19-.94-3.45.31-2.43.94-3.46,1.47-1.86,2.53-2.48,2.24-.93,3.53-.93c.95,0,1.86.18,2.7.54.85.36,1.59.86,2.23,1.48.64.63,1.14,1.36,1.5,2.19s.54,1.71.54,2.65-.18,1.82-.54,2.65c-.36.83-.86,1.56-1.5,2.19s-1.38,1.12-2.23,1.48c-.84.38-1.74.56-2.7.56Zm0-1.56c1.01,0,1.91-.23,2.72-.7.8-.47,1.44-1.1,1.91-1.91.47-.8.7-1.7.7-2.69s-.24-1.88-.72-2.68-1.12-1.43-1.92-1.91c-.8-.48-1.7-.72-2.69-.72s-1.91.23-2.72.7c-.8.47-1.44,1.1-1.92,1.9-.48.8-.72,1.7-.72,2.7s.24,1.89.72,2.69,1.12,1.44,1.94,1.91c.81.48,1.71.71,2.7.71Z"/><path d="m238.62,140.05c-1.11,0-2.1-.19-2.97-.58s-1.6-.91-2.2-1.58c-.6-.66-1.06-1.4-1.37-2.2s-.46-1.63-.46-2.48c0-1.31.29-2.48.87-3.51s1.38-1.85,2.39-2.45c1.01-.6,2.14-.9,3.39-.9,2.03,0,3.61.69,4.72,2.07.6.71.9,1.36.9,1.96,0,.27-.06.51-.19.74-.28.46-.68.69-1.19.69-.39,0-.71-.14-.97-.41-.26-.27-.38-.61-.38-.99,0-.12.04-.26.11-.4.07-.14.14-.27.21-.37.09-.12.11-.23.05-.32-.34-.49-.76-.86-1.29-1.1-.52-.24-1.18-.36-1.97-.36-.97,0-1.83.23-2.58.69s-1.34,1.09-1.76,1.9c-.42.8-.64,1.73-.64,2.77s.23,1.88.69,2.68,1.09,1.42,1.88,1.88c.8.46,1.69.69,2.68.69,1.5,0,2.83-.62,3.98-1.86.16-.16.34-.24.56-.24.19,0,.36.07.5.21.18.19.27.42.27.69,0,.25-.07.44-.21.58-.65.71-1.42,1.25-2.29,1.63-.89.38-1.79.57-2.73.57Z"/><path d="m253.2,140.05c-1.11,0-2.1-.19-2.97-.58s-1.6-.91-2.2-1.58c-.6-.66-1.06-1.4-1.37-2.2s-.46-1.63-.46-2.48c0-1.31.29-2.48.87-3.51s1.38-1.85,2.39-2.45c1.01-.6,2.14-.9,3.39-.9,2.03,0,3.61.69,4.72,2.07.6.71.9,1.36.9,1.96,0,.27-.06.51-.19.74-.28.46-.68.69-1.19.69-.39,0-.71-.14-.97-.41-.26-.27-.38-.61-.38-.99,0-.12.04-.26.11-.4.07-.14.14-.27.21-.37.09-.12.11-.23.05-.32-.34-.49-.76-.86-1.29-1.1-.52-.24-1.18-.36-1.97-.36-.97,0-1.83.23-2.58.69s-1.34,1.09-1.76,1.9c-.42.8-.64,1.73-.64,2.77s.23,1.88.69,2.68,1.09,1.42,1.88,1.88c.8.46,1.69.69,2.68.69,1.5,0,2.83-.62,3.98-1.86.16-.16.34-.24.56-.24.19,0,.36.07.5.21.18.19.27.42.27.69,0,.25-.07.44-.21.58-.65.71-1.42,1.25-2.29,1.63-.89.38-1.79.57-2.73.57Z"/><path d="m264.84,140.05c-1.15,0-2.09-.33-2.82-.99s-1.1-1.51-1.1-2.53c0-1.31.44-2.32,1.31-3.04s1.99-1.07,3.35-1.07c1.17,0,2.44.28,3.82.85.04.02.08.03.13.03.11,0,.16-.06.16-.19v-1.33c0-1.22-.32-2.16-.97-2.84-.65-.67-1.46-1.01-2.45-1.01-.65,0-1.34.16-2.07.48-.12.07-.16.18-.11.32.07.16.11.34.11.53,0,.35-.13.66-.38.93-.26.27-.58.4-.97.4-.42,0-.76-.15-1.01-.44s-.37-.63-.37-1.02c0-.41.14-.78.42-1.11.46-.53,1.04-.94,1.74-1.23.7-.29,1.44-.44,2.24-.44,1.75,0,3.1.47,4.04,1.42.95.95,1.42,2.28,1.42,4.02v6.55c0,.16.08.24.24.24.23-.02.45-.06.66-.12s.42-.09.61-.09c.23,0,.42.08.57.24s.23.36.23.61c0,.27-.1.48-.29.65-.19.17-.42.23-.66.2-.23-.05-.48-.1-.74-.13-.27-.04-.54-.06-.82-.08-.41,0-.75-.14-1.02-.42-.27-.28-.41-.62-.41-1.01,0-.02-.01-.03-.03-.03-.05,0-.14.04-.27.13-.62.5-1.29.87-2,1.14-.72.25-1.57.38-2.56.38Zm0-1.59c1.04-.04,1.92-.21,2.64-.52s1.42-.83,2.11-1.55c.07-.09.11-.19.11-.29v-.95c0-.12-.05-.21-.16-.27-.39-.21-.89-.42-1.5-.64-.61-.21-1.39-.32-2.35-.32s-1.77.23-2.35.69c-.57.46-.86,1.1-.86,1.91,0,.57.22,1.03.66,1.39.44.37,1.01.55,1.7.55Z"/><path d="m281.67,140.05c-.67,0-1.34-.08-2.01-.23-.67-.15-1.29-.36-1.86-.64-.57-.27-1.02-.61-1.37-.99-.34-.39-.52-.81-.52-1.27,0-.39.13-.72.4-.98.27-.27.58-.4.95-.4.41,0,.73.14.98.42.25.28.37.6.37.95,0,.16-.03.32-.08.48-.02.04-.03.07-.03.11,0,.09.04.16.13.21.41.18.87.34,1.38.5s1.06.24,1.64.24c1.2,0,2.18-.21,2.93-.64.75-.42,1.13-.99,1.13-1.7,0-.51-.22-.91-.65-1.21-.43-.29-.99-.53-1.67-.72-.68-.19-1.4-.36-2.16-.53-.76-.17-1.48-.38-2.16-.64s-1.24-.61-1.67-1.06c-.43-.45-.65-1.06-.65-1.82,0-1.15.48-2.06,1.43-2.74.95-.68,2.23-1.02,3.82-1.02.9,0,1.7.12,2.4.34.7.23,1.25.53,1.66.91.41.38.61.82.61,1.31v.13s-.01.11-.03.16c-.04.32-.18.58-.44.8-.26.21-.55.32-.89.32-.39,0-.71-.13-.97-.4s-.38-.57-.38-.93c0-.14.03-.29.08-.45v-.08c0-.12-.04-.2-.13-.24-.57-.23-1.2-.34-1.91-.34-1.03,0-1.88.2-2.56.61s-1.02.95-1.02,1.62c0,.48.22.85.65,1.11.43.27.99.48,1.67.65.68.17,1.4.34,2.16.5.76.17,1.48.39,2.16.66.68.27,1.24.66,1.67,1.15.43.49.65,1.15.65,1.96,0,1.15-.52,2.08-1.56,2.78-1.03.76-2.42,1.11-4.15,1.11Z"/><path d="m291.08,140.07c-.25.02-.46-.06-.65-.23s-.28-.38-.28-.65.09-.49.28-.66c.19-.18.4-.25.65-.21.19.02.39.04.6.05.2.02.41.04.62.08.18,0,.27-.08.27-.24v-9.99c0-.16-.08-.24-.24-.24-.21.02-.42.03-.64.04-.21.01-.42.03-.61.07-.25.02-.46-.06-.65-.23s-.28-.38-.28-.65c0-.25.08-.45.25-.62s.37-.25.6-.25l-.08-.03h-.08.08c.34.04.71.07,1.13.11s.68.05.78.05c.41,0,.75.14,1.02.41.27.27.41.61.41,1.02v10.31c0,.16.09.24.27.24.21-.04.42-.06.64-.08.21-.02.41-.04.58-.05.25-.04.46.04.64.21.18.18.27.4.27.66s-.09.48-.27.65c-.18.17-.39.24-.64.23-.35-.04-.74-.07-1.15-.11-.42-.04-.81-.05-1.18-.05s-.76.02-1.18.05c-.42.04-.81.08-1.16.11Zm2.33-16.35c-.39,0-.72-.14-1.01-.42-.28-.28-.42-.62-.42-1.01,0-.41.14-.75.42-1.02s.62-.41,1.01-.41c.41,0,.75.14,1.02.41.27.27.41.61.41,1.02s-.14.72-.41,1.01c-.27.28-.61.42-1.02.42Z"/><path d="m305.98,140.07c-1.29,0-2.47-.31-3.53-.93s-1.9-1.45-2.53-2.49-.94-2.19-.94-3.45.31-2.43.94-3.46,1.47-1.86,2.53-2.48,2.24-.93,3.53-.93c.95,0,1.86.18,2.7.54.85.36,1.59.86,2.23,1.48.64.63,1.14,1.36,1.5,2.19s.54,1.71.54,2.65-.18,1.82-.54,2.65c-.36.83-.86,1.56-1.5,2.19s-1.38,1.12-2.23,1.48c-.85.38-1.75.56-2.7.56Zm0-1.56c1.01,0,1.91-.23,2.72-.7.8-.47,1.44-1.1,1.91-1.91.47-.8.7-1.7.7-2.69s-.24-1.88-.72-2.68-1.12-1.43-1.92-1.91c-.8-.48-1.7-.72-2.69-.72s-1.91.23-2.72.7c-.8.47-1.44,1.1-1.92,1.9-.48.8-.72,1.7-.72,2.7s.24,1.89.72,2.69,1.12,1.44,1.94,1.91c.81.48,1.71.71,2.7.71Z"/><path d="m315.65,140.05c-.21.02-.4-.04-.56-.19-.16-.14-.24-.33-.24-.56s.08-.42.24-.58c.16-.16.34-.22.56-.19l1.17.08h.05c.12,0,.19-.07.19-.21v-10.39c0-.18-.08-.25-.24-.21l-1.19.08c-.21.02-.4-.05-.57-.2s-.25-.34-.25-.57.08-.42.25-.58c.17-.16.35-.22.54-.19.25.02.52.04.82.07.3.03.59.05.87.07.41.02.75.17,1.02.45s.41.62.41,1.01v1.01c0,.11.03.17.09.19s.13-.01.2-.08c1.91-1.8,3.67-2.7,5.28-2.7,2.26,0,3.39,1.52,3.39,4.56v7.5c0,.18.09.25.27.21l1.11-.08c.21-.04.4.03.56.19s.24.35.24.58-.08.42-.24.56-.34.2-.56.19c-.57-.05-1.01-.09-1.33-.11-.32-.02-.62-.03-.9-.03-.32,0-.64.01-.95.04-.32.03-.74.06-1.27.09-.21.02-.4-.04-.56-.19-.16-.14-.24-.33-.24-.56s.08-.42.24-.58c.16-.16.34-.22.56-.19l1.14.08h.05c.12,0,.19-.07.19-.21v-7.53c0-.94-.16-1.63-.48-2.07s-.83-.66-1.54-.66c-1.54,0-3.24.86-5.12,2.57-.09.09-.13.19-.13.32v7.37c0,.16.08.23.24.21l1.14-.08c.21-.04.4.03.56.19s.24.35.24.58-.08.42-.24.56-.34.2-.56.19c-.57-.05-1.01-.09-1.33-.11-.32-.02-.62-.03-.9-.03-.32,0-.64.01-.95.04-.31.02-.74.05-1.27.09Z"/><path d="m339.93,140.05c-.23.02-.43-.04-.6-.19-.17-.14-.25-.33-.25-.56,0-.25.08-.45.24-.6.16-.15.35-.21.58-.17l1.19.08h.05c.12,0,.19-.07.19-.21v-10.1c0-.16-.08-.24-.24-.24h-1.64c-.21,0-.39-.07-.54-.23-.15-.15-.23-.33-.23-.54,0-.19.08-.37.23-.52.15-.15.33-.23.54-.23h1.64c.16,0,.24-.08.24-.24v-1.7c0-1.24.35-2.25,1.06-3.04s1.6-1.18,2.68-1.18c.78,0,1.39.12,1.83.36.44.24.76.52.94.85.19.33.28.64.28.94,0,.39-.13.71-.38.95-.26.25-.56.37-.91.37-.42,0-.76-.16-1.02-.48-.26-.32-.35-.68-.28-1.09v-.08c0-.09-.04-.16-.11-.21-.14-.07-.32-.11-.53-.11-.55,0-1.02.26-1.4.77-.39.51-.58,1.16-.58,1.94v1.7c0,.16.08.24.24.24h3.02c.21,0,.39.07.53.21.14.14.21.32.21.53s-.08.39-.23.54c-.15.15-.32.23-.52.23h-3.02c-.16,0-.24.08-.24.24v10.1c0,.16.08.23.24.21l1.19-.08c.23-.04.42.02.58.17.16.15.24.35.24.6,0,.23-.08.42-.24.56s-.35.2-.58.19c-.53-.05-.92-.09-1.18-.11-.26-.02-.45-.03-.58-.03h-.46c-.19,0-.36,0-.5.01s-.33.02-.57.04c-.24.05-.61.07-1.11.11Z"/><path d="m353.64,140.05c-1.15,0-2.09-.33-2.82-.99s-1.1-1.51-1.1-2.53c0-1.31.44-2.32,1.31-3.04s1.99-1.07,3.35-1.07c1.17,0,2.44.28,3.82.85.04.02.08.03.13.03.11,0,.16-.06.16-.19v-1.33c0-1.22-.32-2.16-.97-2.84-.65-.67-1.46-1.01-2.45-1.01-.65,0-1.34.16-2.07.48-.12.07-.16.18-.11.32.07.16.11.34.11.53,0,.35-.13.66-.38.93-.26.27-.58.4-.97.4-.42,0-.76-.15-1.01-.44s-.37-.63-.37-1.02c0-.41.14-.78.42-1.11.46-.53,1.04-.94,1.74-1.23.7-.29,1.44-.44,2.24-.44,1.75,0,3.1.47,4.04,1.42.95.95,1.42,2.28,1.42,4.02v6.55c0,.16.08.24.24.24.23-.02.45-.06.66-.12.21-.06.41-.09.61-.09.23,0,.42.08.57.24s.23.36.23.61c0,.27-.1.48-.29.65-.19.17-.42.23-.66.2-.23-.05-.48-.1-.74-.13-.27-.04-.54-.06-.82-.08-.41,0-.75-.14-1.02-.42-.27-.28-.41-.62-.41-1.01,0-.02-.01-.03-.03-.03-.05,0-.14.04-.27.13-.62.5-1.29.87-2,1.14-.72.25-1.57.38-2.56.38Zm0-1.59c1.04-.04,1.92-.21,2.64-.52s1.42-.83,2.11-1.55c.07-.09.11-.19.11-.29v-.95c0-.12-.05-.21-.16-.27-.39-.21-.89-.42-1.5-.64-.61-.21-1.39-.32-2.35-.32s-1.77.23-2.35.69c-.57.46-.86,1.1-.86,1.91,0,.57.22,1.03.66,1.39.44.37,1.01.55,1.7.55Z"/><path d="m365.54,140.07c-.25.02-.46-.06-.65-.23s-.28-.38-.28-.65.09-.49.28-.66c.19-.18.4-.25.65-.21.19.02.39.04.6.05.2.02.41.04.62.08.18,0,.27-.08.27-.24v-9.99c0-.16-.08-.24-.24-.24-.21.02-.42.03-.64.04-.21.01-.42.03-.61.07-.25.02-.46-.06-.65-.23s-.28-.38-.28-.65c0-.25.08-.45.25-.62s.37-.25.6-.25l-.08-.03h-.08.08c.34.04.71.07,1.13.11.41.04.68.05.78.05.41,0,.75.14,1.02.41.27.27.41.61.41,1.02v10.31c0,.16.09.24.27.24.21-.04.42-.06.64-.08.21-.02.41-.04.58-.05.25-.04.46.04.64.21.18.18.27.4.27.66s-.09.48-.27.65c-.18.17-.39.24-.64.23-.35-.04-.74-.07-1.15-.11-.42-.04-.81-.05-1.18-.05s-.76.02-1.18.05c-.42.04-.81.08-1.16.11Zm2.33-16.35c-.39,0-.72-.14-1.01-.42-.28-.28-.42-.62-.42-1.01,0-.41.14-.75.42-1.02.28-.27.62-.41,1.01-.41.41,0,.75.14,1.02.41.27.27.41.61.41,1.02s-.14.72-.41,1.01c-.27.28-.61.42-1.02.42Z"/><path d="m378.69,140.07c-.92,0-1.68-.32-2.29-.95-.61-.64-.91-1.41-.91-2.33v-8.48c0-.16-.08-.24-.24-.24h-1.75c-.21,0-.39-.07-.54-.23-.15-.15-.23-.33-.23-.54,0-.19.07-.37.23-.52.15-.15.33-.23.54-.23h1.75c.16,0,.24-.08.24-.24v-4.69c0-.25.08-.45.25-.61s.37-.24.6-.24.42.08.58.24c.16.16.24.36.24.61v4.69c0,.16.08.24.24.24h3.37c.21,0,.39.07.53.21s.21.32.21.53-.08.39-.23.54-.32.23-.52.23h-3.37c-.16,0-.24.08-.24.24v8.48s.03.21.08.48c.05.27.19.52.4.77s.57.37,1.06.37.9-.15,1.15-.44c.26-.29.43-.76.52-1.42.05-.49.31-.74.77-.74.27,0,.49.09.66.27.18.18.25.39.21.64-.26,2.24-1.37,3.36-3.31,3.36Z"/><path d="m391.52,140.07c-.21.02-.4-.05-.57-.2s-.25-.34-.25-.57c0-.25.08-.45.24-.6.16-.15.35-.21.58-.17l1.25.08h.05c.12,0,.19-.07.19-.21v-16.36c0-.18-.08-.25-.24-.21l-1.22.08c-.23.02-.43-.04-.6-.19-.17-.14-.25-.33-.25-.56,0-.25.08-.45.24-.6.16-.15.35-.21.58-.17.27.02.55.04.86.07s.61.05.89.07c.41.02.75.16,1.02.44.27.27.41.61.41.99v16.43c0,.18.09.25.27.21l1.22-.08c.23-.04.42.02.58.17.16.15.24.35.24.6,0,.23-.08.42-.25.57s-.36.22-.57.2c-.55-.05-.99-.09-1.34-.12-.34-.03-.68-.04-.99-.04-.37,0-.72.01-1.06.04-.35.04-.77.08-1.28.13Z"/><path d="m406.02,140.05c-1.24,0-2.36-.31-3.37-.93s-1.81-1.44-2.41-2.48c-.6-1.03-.9-2.18-.9-3.43s.28-2.45.85-3.49c.57-1.03,1.33-1.86,2.31-2.47.97-.61,2.06-.91,3.26-.91,1.75,0,3.19.55,4.32,1.64,1.13,1.1,1.79,2.61,1.99,4.53.04.37-.08.7-.34.98-.27.28-.6.42-1.01.42h-9.46c-.19,0-.27.09-.21.27.14.83.45,1.57.93,2.21.48.65,1.07,1.15,1.78,1.52s1.47.56,2.28.56c.67,0,1.32-.15,1.95-.44s1.18-.7,1.66-1.23c.23-.23.48-.34.74-.34.16,0,.32.05.48.16.23.18.34.39.34.64,0,.19-.06.35-.19.48-.62.72-1.36,1.29-2.23,1.7-.88.41-1.8.61-2.77.61Zm-4.77-7.72h8.88c.19,0,.27-.1.21-.29-.21-1.38-.71-2.43-1.48-3.15-.78-.72-1.81-1.09-3.1-1.09s-2.33.38-3.18,1.15-1.37,1.81-1.56,3.11v.05c-.01.15.07.22.23.22Z"/><path d="m421.57,139.51c-.21-.02-.39-.12-.53-.3s-.19-.38-.15-.61c.04-.24.16-.43.34-.55.18-.12.38-.14.6-.07l1.21.3h.05c.12.03.19-.03.22-.17l2.86-16.1c.03-.17-.04-.26-.2-.25l-1.21-.14c-.23-.02-.41-.12-.55-.29s-.19-.37-.15-.59c.04-.24.16-.43.34-.55.18-.12.38-.14.6-.07.26.06.54.14.84.22.3.08.59.15.86.22.4.09.71.29.93.61s.3.67.23,1.05l-2.88,16.18c-.03.17.04.26.22.26l1.21.14c.23.01.41.1.54.27.13.18.17.39.13.63-.04.23-.16.4-.35.52s-.39.15-.6.1c-.53-.15-.96-.27-1.3-.35-.33-.09-.66-.16-.97-.21-.37-.07-.72-.11-1.05-.15-.3-.02-.72-.06-1.24-.1Z"/><path d="m430.64,140.07c-.25.02-.46-.06-.65-.23s-.28-.38-.28-.65.09-.49.28-.66c.19-.18.4-.25.65-.21.19.02.39.04.6.05.2.02.41.04.62.08.18,0,.27-.08.27-.24v-9.99c0-.16-.08-.24-.24-.24-.21.02-.42.03-.64.04-.21.01-.42.03-.61.07-.25.02-.46-.06-.65-.23s-.28-.38-.28-.65c0-.25.08-.45.25-.62s.37-.25.6-.25l-.08-.03h-.08.08c.34.04.71.07,1.13.11s.68.05.78.05c.41,0,.75.14,1.02.41.27.27.41.61.41,1.02v10.31c0,.16.09.24.27.24.21-.04.42-.06.64-.08.21-.02.41-.04.58-.05.25-.04.46.04.64.21.18.18.27.4.27.66s-.09.48-.27.65c-.18.17-.39.24-.64.23-.35-.04-.74-.07-1.15-.11-.42-.04-.81-.05-1.18-.05s-.76.02-1.18.05c-.42.04-.8.08-1.16.11Zm2.33-16.35c-.39,0-.72-.14-1.01-.42-.28-.28-.42-.62-.42-1.01,0-.41.14-.75.42-1.02.28-.27.62-.41,1.01-.41.41,0,.75.14,1.02.41.27.27.41.61.41,1.02s-.14.72-.41,1.01c-.27.28-.61.42-1.02.42Z"/><path d="m445.17,140.05c-1.24,0-2.36-.31-3.37-.93s-1.81-1.44-2.41-2.48c-.6-1.03-.9-2.18-.9-3.43s.28-2.45.85-3.49c.57-1.03,1.33-1.86,2.31-2.47.97-.61,2.06-.91,3.26-.91,1.75,0,3.19.55,4.32,1.64,1.13,1.1,1.79,2.61,1.99,4.53.04.37-.08.7-.34.98-.27.28-.6.42-1.01.42h-9.46c-.19,0-.27.09-.21.27.14.83.45,1.57.93,2.21.48.65,1.07,1.15,1.78,1.52s1.47.56,2.28.56c.67,0,1.32-.15,1.95-.44s1.18-.7,1.66-1.23c.23-.23.48-.34.74-.34.16,0,.32.05.48.16.23.18.34.39.34.64,0,.19-.06.35-.19.48-.62.72-1.36,1.29-2.23,1.7-.88.41-1.8.61-2.77.61Zm-4.77-7.72h8.88c.19,0,.27-.1.21-.29-.21-1.38-.71-2.43-1.48-3.15-.78-.72-1.81-1.09-3.1-1.09s-2.33.38-3.18,1.15-1.37,1.81-1.56,3.11v.05c-.01.15.07.22.23.22Z"/><path d="m453.86,140.05c-.21.02-.4-.04-.56-.19-.16-.14-.24-.33-.24-.56s.08-.42.24-.58c.16-.16.34-.22.56-.19l1.17.08h.05c.12,0,.19-.07.19-.21v-10.39c0-.18-.08-.25-.24-.21l-1.19.08c-.21.02-.4-.05-.57-.2s-.25-.34-.25-.57.08-.42.25-.58c.17-.16.35-.22.54-.19.25.02.52.04.82.07s.59.05.87.07c.41.02.75.17,1.02.45s.41.62.41,1.01v1.01c0,.11.03.17.09.19s.13-.01.2-.08c1.91-1.8,3.67-2.7,5.28-2.7,2.26,0,3.39,1.52,3.39,4.56v7.5c0,.18.09.25.27.21l1.11-.08c.21-.04.4.03.56.19s.24.35.24.58-.08.42-.24.56-.34.2-.56.19c-.57-.05-1.01-.09-1.33-.11-.32-.02-.62-.03-.9-.03-.32,0-.64.01-.95.04-.32.03-.74.06-1.27.09-.21.02-.4-.04-.56-.19-.16-.14-.24-.33-.24-.56s.08-.42.24-.58c.16-.16.34-.22.56-.19l1.14.08h.05c.12,0,.19-.07.19-.21v-7.53c0-.94-.16-1.63-.48-2.07s-.83-.66-1.54-.66c-1.54,0-3.24.86-5.12,2.57-.09.09-.13.19-.13.32v7.37c0,.16.08.23.24.21l1.14-.08c.21-.04.4.03.56.19s.24.35.24.58-.08.42-.24.56-.34.2-.56.19c-.57-.05-1.01-.09-1.33-.11-.32-.02-.62-.03-.9-.03-.32,0-.64.01-.95.04-.31.02-.74.05-1.27.09Z"/></g><g><rect class="cls-1" x="219.2" y="58.38" width="92.59" height="13.96" transform="translate(161.18 318.1) rotate(-81.4)"/><path class="cls-1" d="m24.31,51.06l15.36-1.32v9.98c2.2-3.14,4.92-5.69,8.17-7.63s7.4-2.91,12.45-2.91v15.03c-2.63,0-6.09.46-10.37,1.37-4.28.92-7.7,2.51-10.26,4.77v40.49l-15.36,1.32v-61.1h0Z"/><path class="cls-1" d="m69.96,103.45c-3.88-5.81-5.82-13.55-5.82-23.2s1.97-17.59,5.92-23.37,9.69-8.67,17.23-8.67,12.65,2.89,16.46,8.67c3.8,5.78,5.71,13.57,5.71,23.37,0,.59-.11,1.01-.33,1.26-.22.26-.33.42-.33.49h-29.29c0,4.76.62,9.09,1.86,13s3.14,5.87,5.71,5.87c2.85,0,4.97-1.64,6.36-4.94,1.39-3.29,2.12-5.01,2.19-5.16l11.63,4.39c-1.54,5.27-3.99,9.42-7.35,12.45-3.36,3.04-7.75,4.55-13.17,4.55-7.3.01-12.9-2.9-16.78-8.71Zm24.36-30.34c0-4.39-.59-7.86-1.75-10.42-1.17-2.56-3-3.84-5.49-3.84-1.24,0-2.45.62-3.62,1.86s-2.12,2.96-2.85,5.16c-.73,2.2-1.1,4.61-1.1,7.24h14.81Z"/><path class="cls-1" d="m123.99,107.78c-3.33-2.92-5.83-6.8-7.52-11.63-1.68-4.83-2.52-10.06-2.52-15.69s.82-10.79,2.47-15.69,4.15-8.89,7.52-11.96c3.36-3.07,7.5-4.61,12.4-4.61,3.73,0,7.08.93,10.04,2.8,2.96,1.86,5.28,4.48,6.97,7.85,1.68,3.36,2.6,7.21,2.74,11.52l-14.59.66c0-.29-.13-1.46-.38-3.51-.26-2.05-.81-3.73-1.65-5.05-.84-1.32-1.92-1.97-3.24-1.97-2.93,0-4.79,1.99-5.6,5.98-.81,3.99-1.21,8.47-1.21,13.44s.42,9.35,1.26,13.33c.84,3.99,2.83,5.98,5.98,5.98,3.95,0,6-3.88,6.14-11.63l12.95,1.43c-.95,7.61-2.85,13.37-5.71,17.28-2.85,3.91-7.53,5.87-14.04,5.87-4.68-.01-8.69-1.47-12.01-4.4Z"/><path class="cls-1" d="m157.83,129.51v-12.84c2.71.15,4.86.22,6.47.22,6.44,0,9.66-3,9.66-9v-3.07l-17.66-55.19,16.68-.77,8.67,38.73,8.23-38.4,13.93-.11-15.8,60.45c-2.19,7.9-5.39,13.31-9.6,16.24s-8.91,4.39-14.1,4.39c-1.76,0-3.92-.21-6.48-.65Z"/><path class="cls-1" d="m217.84,107.78c-3.33-2.92-5.83-6.8-7.52-11.63-1.68-4.83-2.52-10.06-2.52-15.69s.82-10.79,2.47-15.69,4.15-8.89,7.52-11.96c3.36-3.07,7.5-4.61,12.4-4.61,3.73,0,7.08.93,10.04,2.8,2.96,1.86,5.28,4.48,6.97,7.85,1.68,3.36,2.6,7.21,2.74,11.52l-14.59.66c0-.29-.13-1.46-.38-3.51-.26-2.05-.81-3.73-1.65-5.05-.84-1.32-1.92-1.97-3.24-1.97-2.93,0-4.79,1.99-5.6,5.98-.81,3.99-1.21,8.47-1.21,13.44s.42,9.35,1.26,13.33c.84,3.99,2.83,5.98,5.98,5.98,3.95,0,6-3.88,6.14-11.63l12.95,1.43c-.95,7.61-2.85,13.37-5.71,17.28-2.85,3.91-7.53,5.87-14.04,5.87-4.67-.01-8.68-1.47-12.01-4.4Z"/><path class="cls-1" d="m279.42,112.17v-61.11l15.36-1.32v61.11l-15.36,1.32Zm.11-70.33v-15.91l15.36-1.1v16.35l-15.36.66Z"/><path class="cls-1" d="m317.22,112.17l-17.23-60.45,18.43-1.32,7.79,39.5,8.89-37.52,13.93-1.32-17.67,61.11h-14.14Z"/><path class="cls-1" d="m353.61,51.06l15.36-1.32v9.98c2.2-3.14,4.92-5.69,8.17-7.63s7.4-2.91,12.45-2.91v15.03c-2.63,0-6.09.46-10.37,1.37-4.28.92-7.7,2.51-10.26,4.77v40.49l-15.36,1.32v-61.1h.01Z"/><path class="cls-1" d="m398.45,103.45c-3.88-5.81-5.82-13.55-5.82-23.2s1.97-17.59,5.92-23.37,9.69-8.67,17.23-8.67,12.65,2.89,16.46,8.67c3.8,5.78,5.71,13.57,5.71,23.37,0,.59-.11,1.01-.33,1.26-.22.26-.33.42-.33.49h-29.29c0,4.76.62,9.09,1.86,13s3.14,5.87,5.71,5.87c2.85,0,4.97-1.64,6.36-4.94,1.39-3.29,2.12-5.01,2.19-5.16l11.63,4.39c-1.54,5.27-3.99,9.42-7.35,12.45-3.36,3.04-7.75,4.55-13.17,4.55-7.31.01-12.91-2.9-16.78-8.71Zm24.36-30.34c0-4.39-.59-7.86-1.75-10.42-1.17-2.56-3-3.84-5.49-3.84-1.24,0-2.45.62-3.62,1.86s-2.12,2.96-2.85,5.16-1.1,4.61-1.1,7.24h14.81Z"/></g></svg>